PathFileType	4	(X/Y/Z)	Kaydara	
DataRate	CameraRate	NumFrames	NumMarkers	Units	OrigDataRate	OrigDataStartFrame	OrigNumFrames	
120.00	120.00	4	72	mm	120.00	196	261	
Frame#	Time	Hips			RightUpLeg			RightLeg			RightFoot			RightFoot_End			LeftUpLeg			LeftLeg			LeftFoot			LeftFoot_End			Spine			Spine1			Spine2			Spine3			Neck			Head			Head_End			RightShoulder			RightArm			RightForeArm			RightHand			RightHandThumb1			RightHandThumb2			RightHandThumb3			RightHandThumb3_End			RightInHandIndex			RightHandIndex1			RightHandIndex2			RightHandIndex3			RightHandIndex3_End			RightInHandMiddle			RightHandMiddle1			RightHandMiddle2			RightHandMiddle3			RightHandMiddle3_End			RightInHandRing			RightHandRing1			RightHandRing2			RightHandRing3			RightHandRing3_End			RightInHandPinky			RightHandPinky1			RightHandPinky2			RightHandPinky3			RightHandPinky3_End			LeftShoulder			LeftArm			LeftForeArm			LeftHand			LeftHandThumb1			LeftHandThumb2			LeftHandThumb3			LeftHandThumb3_End			LeftInHandIndex			LeftHandIndex1			LeftHandIndex2			LeftHandIndex3			LeftHandIndex3_End			LeftInHandMiddle			LeftHandMiddle1			LeftHandMiddle2			LeftHandMiddle3			LeftHandMiddle3_End			LeftInHandRing			LeftHandRing1			LeftHandRing2			LeftHandRing3			LeftHandRing3_End			LeftInHandPinky			LeftHandPinky1			LeftHandPinky2			LeftHandPinky3			LeftHandPinky3_End			
		X1	Y1	Z1	X2	Y2	Z2	X3	Y3	Z3	X4	Y4	Z4	X5	Y5	Z5	X6	Y6	Z6	X7	Y7	Z7	X8	Y8	Z8	X9	Y9	Z9	X10	Y10	Z10	X11	Y11	Z11	X12	Y12	Z12	X13	Y13	Z13	X14	Y14	Z14	X15	Y15	Z15	X16	Y16	Z16	X17	Y17	Z17	X18	Y18	Z18	X19	Y19	Z19	X20	Y20	Z20	X21	Y21	Z21	X22	Y22	Z22	X23	Y23	Z23	X24	Y24	Z24	X25	Y25	Z25	X26	Y26	Z26	X27	Y27	Z27	X28	Y28	Z28	X29	Y29	Z29	X30	Y30	Z30	X31	Y31	Z31	X32	Y32	Z32	X33	Y33	Z33	X34	Y34	Z34	X35	Y35	Z35	X36	Y36	Z36	X37	Y37	Z37	X38	Y38	Z38	X39	Y39	Z39	X40	Y40	Z40	X41	Y41	Z41	X42	Y42	Z42	X43	Y43	Z43	X44	Y44	Z44	X45	Y45	Z45	X46	Y46	Z46	X47	Y47	Z47	X48	Y48	Z48	X49	Y49	Z49	X50	Y50	Z50	X51	Y51	Z51	X52	Y52	Z52	X53	Y53	Z53	X54	Y54	Z54	X55	Y55	Z55	X56	Y56	Z56	X57	Y57	Z57	X58	Y58	Z58	X59	Y59	Z59	X60	Y60	Z60	X61	Y61	Z61	X62	Y62	Z62	X63	Y63	Z63	X64	Y64	Z64	X65	Y65	Z65	X66	Y66	Z66	X67	Y67	Z67	X68	Y68	Z68	X69	Y69	Z69	X70	Y70	Z70	X71	Y71	Z71	X72	Y72	Z72	

196	1.625	81.20300000000043	893.81699	129.612	116.75	857.3191699999999	51.89814	0.12568999999984953	455.16078999999996	38.989959999999996	129.8519699999997	106.55431999999999	-69.86013000000001	37.3091000000004	22.147939999999995	74.53513	57.93006999999943	903.9461199999998	220.68044	-25.31778000000031	506.39356999999995	322.92752	-121.90902000000006	74.92585	370.0637899999999	-271.12186999999994	3.5158699999999996	274.27887999999996	32.07218000000012	1017.6461200000001	77.62575000000001	-20.825380000000223	1082.3531100000002	28.225360000000002	-80.06433000000015	1144.2382999999998	-25.551730000000003	-142.76275999999962	1194.2093499999999	-80.48032	-210.33287999999993	1248.6026099999997	-137.59256	-273.46976000000086	1296.7216500000002	-188.28652	-412.1071900000006	1374.7909899999997	-199.47085999999996	-178.97915000000012	1214.35078	-144.57544999999996	-155.74812999999995	1129.96166	-237.14475	-225.73530000000028	898.09035	-128.89438	-326.0674799999997	658.68616	-118.23075	-339.7664199999999	632.0272400000001	-144.66109000000006	-370.8675800000001	613.0266900000001	-149.94827	-392.31105000000025	599.0927299999998	-149.22563000000002	-410.0033000000003	586.87606	-144.85514999999998	-338.64016999999967	625.5405800000001	-132.36487000000002	-364.03409999999985	578.8827800000001	-133.0018	-390.3111399999998	554.5557900000001	-127.73886000000002	-409.5760500000006	548.09332	-124.87330999999998	-427.49694999999974	548.58685	-122.77563000000002	-337.57954000000063	625.64228	-120.09159000000001	-361.7718700000005	580.18635	-114.07583000000002	-390.23377999999957	553.8156999999999	-106.70429999999999	-413.3746599999995	546.1029299999999	-102.46558000000002	-432.9340199999997	546.68378	-99.79040999999998	-336.09845999999925	626.80822	-111.43353	-356.24895000000015	586.8002599999998	-98.61204000000001	-380.80300999999963	564.0669999999998	-90.53152	-402.9896399999998	556.76101	-85.56379999999999	-421.31658999999945	557.37047	-82.63184999999999	-334.31537000000026	630.2643300000002	-101.20559	-351.4252399999996	595.3609100000001	-83.23875	-370.6045699999995	577.7245199999999	-74.24115	-386.55411000000004	572.67004	-69.39527000000001	-402.6544300000005	573.3679299999999	-66.09452999999999	-197.80974999999944	1245.6957599999998	-91.74278	-220.60991000000013	1261.5378	33.83527000000001	-220.06217000000015	1001.4163200000002	-15.136449999999996	-195.25698999999986	746.24757	-57.11719000000001	-197.46815999999944	722.4760800000003	-89.16324	-174.81267000000025	699.9445800000001	-107.47492	-157.84077999999954	682.8799099999998	-116.14971	-142.67010000000028	667.4786300000001	-119.89334000000001	-195.54917999999998	714.31571	-78.01568	-182.20705999999973	664.98793	-92.54033000000001	-161.3819800000001	636.29537	-99.82299999999998	-144.10897000000023	626.49683	-104.99434999999997	-126.89402999999947	623.80954	-109.70889	-192.21591999999964	712.5640900000001	-66.2858	-177.40274000000045	663.50219	-74.10883000000001	-154.26747999999952	632.1288199999999	-80.4573	-133.23100999999951	620.2765200000001	-85.92933	-114.29887000000053	617.32121	-90.71501	-190.30814999999984	712.5093200000001	-57.632920000000006	-175.68873000000076	668.27013	-57.14699	-155.12608	640.93765	-61.03424999999999	-134.62342999999964	629.51191	-65.4383	-116.7223100000001	626.73638	-69.5238	-187.6552099999999	714.47406	-47.20044	-172.96462000000065	674.83842	-40.344370000000005	-155.94104999999945	653.1648200000001	-40.89115	-140.71651999999995	644.93398	-42.862230000000004	-124.70376000000033	642.5346800000001	-45.766960000000005
197	1.633	81.20300000000043	893.81699	129.612	112.51360000000022	854.7652899999999	51.31936999999999	-0.5613600000006045	451.56033999999994	39.5278	130.51389999999992	105.3178	-75.09808	42.10779999999977	20.617699999999992	71.69723	61.90689999999995	906.40209	221.3015	-23.00941000000057	509.20722	323.5666100000001	-120.09815999999955	77.75914000000002	369.85291	-268.93051000000014	5.554010000000002	274.07212000000004	33.710369999999784	1018.05454	77.08065999999998	-18.72309999999925	1083.08379	27.60871	-77.61578000000009	1145.29719	-26.169979999999995	-140.21070999999938	1195.55056	-80.95889	-207.6527299999998	1250.2231700000002	-137.95568	-270.7356299999992	1298.6084199999996	-188.46311	-409.3585700000003	1376.74646	-199.34324999999998	-177.67543000000023	1214.7026499999997	-144.63842	-160.3452500000003	1125.53542	-233.96449000000004	-233.2436800000005	899.83726	-115.10825	-341.4651100000001	665.5074999999998	-85.57332	-359.0797299999995	637.8683699999999	-108.43651	-391.29241999999977	620.0264299999999	-108.95169999999999	-413.0423200000005	607.17445	-104.91829000000001	-430.58997	596.0951400000001	-97.79842	-356.8274300000003	632.13969	-95.92046000000002	-383.92281	586.76193	-90.54387	-410.36344999999983	564.0647	-80.76063	-429.41885	558.6976199999999	-75.35713	-446.95642000000043	560.1532600000002	-71.34248	-354.38718999999946	632.9802599999999	-83.87440000000001	-379.49311000000034	589.1722799999998	-72.11625	-407.94470999999976	564.67428	-59.86122999999999	-430.74221000000034	558.3283100000001	-52.58412	-449.83808000000045	559.98386	-47.82289	-351.89563	634.6300899999999	-75.53262999999998	-372.01008	596.50314	-57.84606999999998	-396.3606300000001	575.4959	-45.568259999999995	-418.11273000000074	569.5581100000002	-37.7012	-435.9549399999996	571.20166	-32.82273000000001	-348.8384100000003	638.6497599999999	-65.82538999999998	-365.15592000000015	605.80116	-43.72309	-383.8688999999995	589.6850899999997	-31.477980000000002	-399.35473999999977	585.69543	-24.572229999999983	-414.9412000000002	587.3478300000003	-19.5788	-193.8429099999994	1248.46692	-92.41795	-211.73727000000054	1271.1966799999998	32.896910000000005	-220.19198999999935	1009.3653800000001	-4.979170000000003	-195.44037000000026	754.1117800000001	-46.47297999999999	-201.54209999999966	728.85419	-76.83321999999998	-181.37847000000056	705.04381	-96.39726	-165.7095100000006	687.2667099999999	-106.03876	-151.2551199999998	671.4239400000001	-110.66920000000002	-198.4891800000005	721.2118100000001	-65.57197	-187.49996999999985	670.99774	-78.98811000000002	-167.9963000000007	641.6050699999998	-87.09132	-151.54101999999966	631.2491499999999	-93.65561	-135.00036	628.01814	-100.11856	-193.8829399999995	719.9716899999999	-54.21356000000001	-180.67626000000018	670.3220399999998	-61.155840000000005	-158.80692999999974	638.25497	-68.45428	-138.67256999999972	625.7639199999999	-75.63305	-120.4371600000004	622.23008	-82.34455	-191.01663000000008	720.30276	-45.835640000000005	-177.0073400000001	675.8771199999999	-44.752939999999995	-157.3656600000004	648.01273	-49.52557	-137.63629000000037	636.0094799999999	-55.60637	-120.34436000000005	632.7082900000001	-61.517060000000015	-187.18404999999984	722.72341	-35.87639	-172.32943000000068	683.2037	-28.711439999999996	-155.75606999999945	661.21842	-30.05941	-140.95661999999993	652.62162	-33.29812	-125.4035300000005	649.7884700000002	-37.84535999999999
198	1.642	81.20300000000043	893.81699	129.612	102.86524000000009	850.21674	50.46094000000001	-6.640330000000176	446.05877	37.65147	125.23891999999978	102.77205000000001	-84.68332999999998	40.431649999999536	17.117489999999997	63.673120000000004	71.08596000000034	910.70229	222.07940999999997	-15.881570000000465	513.49804	322.56885	-113.51229000000058	81.90935999999999	366.33579000000003	-261.95798000000013	9.172159999999998	270.35774	36.79739999999947	1018.9990599999999	76.62471	-14.674009999999726	1085.0837199999999	27.54255	-72.93439000000035	1148.27016	-25.78853	-135.54934999999932	1199.0447500000002	-80.07166	-202.99249000000054	1254.2473399999997	-136.55398999999997	-266.1308200000003	1303.1281499999998	-186.51197999999997	-404.7542599999997	1381.3971000000004	-196.39953	-174.41989999999987	1217.56148	-143.09310000000002	-163.22685	1124.38535	-229.25110999999998	-238.38959999999952	905.4902999999999	-99.57396000000001	-351.7065500000008	676.4278700000001	-52.837480000000006	-373.18732999999975	648.5457799999999	-71.76067	-405.89573999999993	632.23121	-67.26049	-427.4550099999997	620.62965	-59.83742000000001	-444.38533000000007	610.75254	-49.97988999999999	-369.59252000000015	643.3455	-59.32779000000002	-397.58839999999964	599.61144	-48.11301999999999	-423.46092000000044	578.69282	-33.86493999999999	-441.87392	574.50024	-25.83406	-458.68470999999954	576.9743600000002	-19.744829999999993	-365.6066900000005	644.66701	-47.746100000000006	-390.75527000000056	602.72222	-30.544850000000004	-418.37859000000026	580.2239500000001	-13.497510000000005	-440.30108999999993	575.3232400000003	-3.088809999999995	-458.5531200000005	578.1069399999999	3.923789999999997	-362.00900999999976	646.60979	-39.88498000000001	-381.2272700000003	610.3925899999999	-17.748069999999984	-404.6427599999997	591.18568	-1.3832599999999786	-425.43766999999934	586.6724000000002	9.456670000000003	-442.43282999999974	589.39113	16.42935	-357.5814499999997	650.9580599999999	-30.87254	-372.2620100000004	620.04774	-5.126909999999995	-389.89757999999983	605.4544700000001	10.231110000000001	-404.5262700000003	602.5431199999999	19.227979999999988	-419.27088000000003	605.17055	26.032049999999998	-187.77508000000034	1253.3684500000002	-91.44147	-200.4423999999999	1282.31239	33.22790000000002	-217.19731000000047	1019.6054199999999	5.5506500000000045	-192.3711199999998	764.4765700000002	-36.659609999999994	-202.5377899999994	738.2606500000002	-65.05479	-185.29886999999962	713.3374199999997	-85.98109	-171.21291999999994	694.8978100000003	-96.75452000000001	-157.69002	678.5989699999998	-102.48536	-198.25936999999976	730.9722999999999	-53.95897	-189.80455999999958	680.0841399999999	-66.65224000000002	-171.91412000000037	650.0154599999998	-75.91458	-156.55216000000019	639.08638	-84.01868999999999	-140.97739999999976	635.27784	-92.30870999999999	-192.32358000000022	730.05175	-43.20314	-180.86978	679.9175199999999	-49.76582	-160.57697000000007	647.1568900000001	-58.41303	-141.67344000000048	633.9955	-67.48981	-124.45200999999997	629.8400099999999	-76.22004	-188.45233999999982	730.62849	-35.25355999999999	-175.13890999999967	685.9897499999997	-34.1562	-156.68066	657.5666500000001	-40.190979999999996	-138.0372699999998	644.94113	-48.148529999999994	-121.6507700000002	641.06696	-55.97912	-183.39545999999973	733.33055	-25.9336	-168.42198000000008	693.79771	-19.095990000000004	-152.4958000000006	671.4374	-21.589870000000005	-138.34311999999954	662.42172	-26.2629	-123.50845000000027	659.10115	-32.54849
199	1.65	81.20300000000043	893.81699	129.612	99.64650999999958	848.62568	50.53793999999999	-6.126639999999497	443.46707999999995	37.97765	126.4034900000006	102.87644999999999	-91.00882	46.35453000000052	16.46056	59.53376	74.15297999999984	912.26025	222.06648999999993	-15.092239999999947	515.41162	321.96222000000006	-113.3433500000001	83.88277000000001	364.92335	-261.3984499999997	10.325219999999998	268.96719	37.77918999999929	1019.0932900000003	76.03699	-13.462289999999484	1085.30829	26.88997	-71.54697000000033	1148.6918099999998	-26.3989	-134.10815000000002	1199.7896	-80.44023	-201.4740700000002	1255.3230299999998	-136.68989999999997	-264.59334000000035	1304.5362200000002	-186.34475000000003	-403.0953899999995	1383.1061600000003	-195.52063000000004	-174.34947999999986	1217.48762	-142.83339	-169.3640600000008	1120.35109	-225.11290999999997	-246.01988999999958	909.2020499999999	-83.97251	-361.9749499999998	685.56585	-20.443789999999986	-386.83719999999994	658.01103	-35.26006	-419.3547899999994	643.4359700000001	-25.9632	-440.2548800000004	633.15509	-15.38066999999998	-456.1854400000002	624.4724599999997	-3.044019999999989	-381.90498000000025	653.1329499999999	-23.159660000000002	-410.03776000000016	611.2279600000003	-6.584769999999992	-434.7291700000005	592.11391	11.717449999999985	-452.12535000000025	589.1041500000001	22.178120000000007	-467.9039499999999	592.5983900000001	30.21732	-376.4223000000002	654.71329	-12.241249999999994	-400.8951299999999	614.69236	9.829229999999995	-427.0300699999998	594.1921299999998	31.19595000000001	-447.63004999999976	590.7323000000001	44.48594	-464.70614000000023	594.6389299999998	53.60777999999999	-371.77315	656.78793	-4.9889300000000105	-389.5009599999994	622.39672	20.973330000000004	-411.4161899999999	604.9578400000001	40.98848000000001	-430.8276299999998	601.84851	54.546869999999984	-446.6660099999999	605.62975	63.473960000000005	-366.05453000000034	661.26923	3.1933800000000048	-378.60421999999926	632.1018000000001	31.926119999999997	-394.72815999999966	618.95777	50.01199000000001	-408.19765000000007	617.0866600000002	60.8973	-421.83118000000013	620.6646199999999	69.37832000000002	-184.8545699999995	1255.4447599999999	-92.06637999999998	-192.26227000000017	1290.96555	31.319449999999996	-216.78030000000035	1027.92732	14.84319	-191.98708999999963	772.7489800000001	-27.08634	-206.25756999999976	745.9251100000001	-53.043139999999994	-192.37179000000015	719.92199	-75.11755999999998	-180.1767200000004	700.79693	-86.95025	-167.8501500000002	683.98363	-93.78634	-200.75558	738.88091	-42.33569	-195.08799	687.4187	-54.24065000000001	-179.17792999999983	656.6236799999999	-64.65796	-165.2151299999996	645.05389	-74.26480999999998	-150.9117499999993	640.5874800000001	-84.32796000000002	-193.51647999999932	738.1459300000001	-32.39466999999999	-184.07626999999957	687.5522599999999	-38.62868	-165.76347999999962	654.0249800000001	-48.64838999999999	-148.4611500000001	640.1030600000001	-59.59202	-132.58862000000045	635.2337899999999	-70.28855	-188.6505500000003	738.8720699999999	-25.025110000000005	-176.27016000000003	693.96192	-24.09059	-159.3496100000002	664.8978000000001	-31.437019999999997	-142.15081999999984	651.55313	-41.25656000000001	-126.98527999999988	647.01466	-50.965	-182.38827000000038	741.73427	-16.520609999999998	-167.51905999999963	702.06325	-10.281970000000003	-152.5267100000001	679.23322	-14.005559999999996	-139.2838099999999	669.71408	-20.12351	-125.44789000000037	665.81719	-28.122520000000005
